<?xml version="1.0" encoding="UTF-8"?>
<svg width="440px" height="440px" viewBox="0 0 440 440" version="1.1" xmlns="http://www.w3.org/2000/svg" xmlns:xlink="http://www.w3.org/1999/xlink">
    <defs>
        <radialGradient cx="50%" cy="19.518713%" fx="50%" fy="19.518713%" r="42.1173775%" gradientTransform="translate(0.500000,0.195187),scale(0.500204,1.000000),rotate(90.000000),translate(-0.500000,-0.195187)" id="radialGradient-1">
            <stop stop-color="#DFAC9B" offset="0%"></stop>
            <stop stop-color="#E8B6A7" offset="100%"></stop>
        </radialGradient>
        <radialGradient cx="50%" cy="19.518713%" fx="50%" fy="19.518713%" r="101.193006%" gradientTransform="translate(0.500000,0.195187),scale(0.305268,1.000000),rotate(90.000000),translate(-0.500000,-0.195187)" id="radialGradient-2">
            <stop stop-color="#465676" offset="0%"></stop>
            <stop stop-color="#545F7C" offset="100%"></stop>
        </radialGradient>
        <path d="M134.173359,305.73685 L184.30468,355.868172 C196.912659,368.47615 202.797369,371.735356 209.871732,373.87957 C216.946095,376.023784 224.180889,376.023784 231.255252,373.87957 C238.329615,371.735356 244.214325,368.47615 256.822304,355.868172 L306.300342,306.390133 L439.820418,439.910209 L439.730627,440 L0.089791051,440 L-5.68434189e-14,439.910209 L134.173359,305.73685 Z" id="path-3"></path>
        <filter x="-0.1%" y="-1.1%" width="100.2%" height="101.5%" filterUnits="objectBoundingBox" id="filter-4">
            <feOffset dx="0" dy="-1" in="SourceAlpha" result="shadowOffsetOuter1"></feOffset>
            <feColorMatrix values="0 0 0 0 1   0 0 0 0 1   0 0 0 0 1  0 0 0 0.247763813 0" type="matrix" in="shadowOffsetOuter1"></feColorMatrix>
        </filter>
        <path d="M199,77 C212.700309,68.3961283 224.753092,59.9439227 234,48 C235.479074,54.9023449 232.582829,63.8100445 225.311264,74.7230988 C236.942179,66.7830681 246.838424,57.5420352 255,47 C256.50526,54.0245461 253.478905,63.1260822 245.920936,74.3046083 C257.288382,66.4588905 266.981403,57.3573544 275,47 C276.64451,54.6743798 272.880194,64.8278049 263.707052,77.4602752 C276.471605,69.1403609 287.235921,59.3202692 296,48 C298,57.3333333 292,70.3333333 278,87 L272.536089,87.8742257 C275.670241,89.3627385 278.742616,91.0484609 281.695067,92.9562752 C306.984678,112.402826 304.961509,125.007963 304.961509,142.144609 L304.674986,151.702762 C303.602517,142.430019 299.167313,133.579327 281.695067,121.886633 C260.451794,109.940143 233,108 221,108 C209,108 181.548206,109.940143 160.304933,121.886633 C142.832687,133.579327 138.397483,142.430019 137.325014,151.702762 L137.038491,142.144609 C137.038491,125.007963 135.015322,112.402826 160.304933,92.9562752 C172.717009,84.9358408 185.299691,85.6038717 199,77 Z" id="path-5"></path>
        <filter x="-20.5%" y="-24.4%" width="141.1%" height="165.9%" filterUnits="objectBoundingBox" id="filter-6">
            <feOffset dx="0" dy="9" in="SourceAlpha" result="shadowOffsetOuter1"></feOffset>
            <feGaussianBlur stdDeviation="10" in="shadowOffsetOuter1" result="shadowBlurOuter1"></feGaussianBlur>
            <feColorMatrix values="0 0 0 0 0   0 0 0 0 0   0 0 0 0 0  0 0 0 0.0393738678 0" type="matrix" in="shadowBlurOuter1"></feColorMatrix>
        </filter>
        <path d="M240,55 C241.479074,61.9023449 238.582829,70.8100445 231.311264,81.7230988 C242.942179,73.7830681 252.838424,64.5420352 261,54 C262.50526,61.0245461 259.478905,70.1260822 251.920936,81.3046083 C263.288382,73.4588905 272.981403,64.3573544 281,54 C282.64451,61.6743798 278.880194,71.8278049 269.707052,84.4602752 C282.471605,76.1403609 293.235921,66.3202692 302,55 C304,64.3333333 298,77.3333333 284,94 L275.759983,95.3184028 C277.778849,96.2839563 279.762645,97.3294135 281.695067,98.4610972 C306.984678,116.085414 304.961509,127.509391 304.961509,143.040253 L304.674986,151.702762 C303.602517,143.298918 299.167313,135.277578 281.695067,124.680544 C260.451794,113.853496 233,112.095154 221,112.095154 C209,112.095154 181.548206,113.853496 160.304933,124.680544 C142.832687,135.277578 138.397483,143.298918 137.325014,151.702762 L137.038491,143.040253 C137.038491,127.509391 135.015322,116.085414 160.304933,98.4610972 C181,89 195,93 207.337826,84.7001561 C223.213639,72.5195549 234.10103,62.6195028 240,55 Z" id="path-7"></path>
        <filter x="-20.5%" y="-26.1%" width="141.1%" height="170.6%" filterUnits="objectBoundingBox" id="filter-8">
            <feOffset dx="0" dy="9" in="SourceAlpha" result="shadowOffsetOuter1"></feOffset>
            <feGaussianBlur stdDeviation="10" in="shadowOffsetOuter1" result="shadowBlurOuter1"></feGaussianBlur>
            <feColorMatrix values="0 0 0 0 0   0 0 0 0 0   0 0 0 0 0  0 0 0 0.0393738678 0" type="matrix" in="shadowBlurOuter1"></feColorMatrix>
        </filter>
        <path d="M304.961509,144.319744 L304.674986,151.702762 C303.602517,144.540204 299.167313,137.703651 281.695067,128.671846 C260.451794,119.444002 233,117.945375 221,117.945375 C209,117.945375 181.548206,119.444002 160.304933,128.671846 C142.832687,137.703651 138.397483,144.540204 137.325014,151.702762 L137.038491,144.319744 C137.038491,131.08286 135.710389,121.372508 161,106.351381 C177.156425,98.2872297 195.182116,103.310314 210.018955,94.3945113 C224.855794,85.4787089 237.182809,74.6805384 247,62 C248.479074,68.9023449 245.582829,77.8100445 238.311264,88.7230988 C249.942179,80.7830681 259.838424,71.5420352 268,61 C269.50526,68.0245461 266.478905,77.1260822 258.920936,88.3046083 C270.288382,80.4588905 279.981403,71.3573544 288,61 C289.64451,68.6743798 285.880194,78.8278049 276.707052,91.4602752 C289.471605,83.1403609 300.235921,73.3202692 309,62 C310.999058,71.3289354 305.005653,84.3210829 291.019785,100.976442 C304.813787,114.531293 305.085907,125.039127 304.989443,137.599193 C305.02435,139.762715 304.961509,141.986869 304.961509,144.319744 Z" id="path-9"></path>
        <filter x="-20.0%" y="-28.1%" width="140.0%" height="176.1%" filterUnits="objectBoundingBox" id="filter-10">
            <feOffset dx="0" dy="9" in="SourceAlpha" result="shadowOffsetOuter1"></feOffset>
            <feGaussianBlur stdDeviation="10" in="shadowOffsetOuter1" result="shadowBlurOuter1"></feGaussianBlur>
            <feColorMatrix values="0 0 0 0 0   0 0 0 0 0   0 0 0 0 0  0 0 0 0.0393738678 0" type="matrix" in="shadowBlurOuter1"></feColorMatrix>
        </filter>
        <filter x="-12.2%" y="-13.2%" width="124.4%" height="146.3%" filterUnits="objectBoundingBox" id="filter-11">
            <feGaussianBlur stdDeviation="0.5" in="SourceAlpha" result="shadowBlurInner1"></feGaussianBlur>
            <feOffset dx="0" dy="1" in="shadowBlurInner1" result="shadowOffsetInner1"></feOffset>
            <feComposite in="shadowOffsetInner1" in2="SourceAlpha" operator="arithmetic" k2="-1" k3="1" result="shadowInnerInner1"></feComposite>
            <feColorMatrix values="0 0 0 0 1   0 0 0 0 1   0 0 0 0 1  0 0 0 0.116140172 0" type="matrix" in="shadowInnerInner1"></feColorMatrix>
        </filter>
        <radialGradient cx="50%" cy="0%" fx="50%" fy="0%" r="123.809524%" gradientTransform="translate(0.500000,0.000000),scale(1.000000,0.807692),rotate(90.000000),translate(-0.500000,-0.000000)" id="radialGradient-12">
            <stop stop-color="#FAD2C5" offset="0%"></stop>
            <stop stop-color="#E8B7A8" offset="100%"></stop>
        </radialGradient>
        <path d="M84,208 C40.7746177,207.025895 4.08482852,166.204384 2.06165963,115.4318 L0.0384907281,56.6948896 C0.0384907281,41.780989 -1.98467817,30.8108274 23.3049331,13.8866328 C44.5482065,1.94014258 72,0 84,0 C96,0 123.451794,1.94014258 144.695067,13.8866328 C169.984678,30.8108274 167.961509,41.780989 167.961509,56.6948896 L165.93834,115.4318 C163.915171,166.204384 127.225382,207.025895 84,208 Z" id="path-13"></path>
        <filter x="-20.8%" y="-12.0%" width="141.7%" height="133.7%" filterUnits="objectBoundingBox" id="filter-14">
            <feOffset dx="0" dy="10" in="SourceAlpha" result="shadowOffsetOuter1"></feOffset>
            <feGaussianBlur stdDeviation="10" in="shadowOffsetOuter1" result="shadowBlurOuter1"></feGaussianBlur>
            <feColorMatrix values="0 0 0 0 0   0 0 0 0 0   0 0 0 0 0  0 0 0 0.0393738678 0" type="matrix" in="shadowBlurOuter1"></feColorMatrix>
        </filter>
        <filter x="-12.5%" y="-5.3%" width="125.0%" height="120.2%" filterUnits="objectBoundingBox" id="filter-15">
            <feGaussianBlur stdDeviation="0.5" in="SourceAlpha" result="shadowBlurInner1"></feGaussianBlur>
            <feOffset dx="0" dy="1" in="shadowBlurInner1" result="shadowOffsetInner1"></feOffset>
            <feComposite in="shadowOffsetInner1" in2="SourceAlpha" operator="arithmetic" k2="-1" k3="1" result="shadowInnerInner1"></feComposite>
            <feColorMatrix values="0 0 0 0 1   0 0 0 0 1   0 0 0 0 1  0 0 0 0.5 0" type="matrix" in="shadowInnerInner1"></feColorMatrix>
        </filter>
        <radialGradient cx="50%" cy="0%" fx="50%" fy="0%" r="257.494062%" gradientTransform="translate(0.500000,0.000000),scale(1.000000,0.388358),rotate(90.000000),translate(-0.500000,-0.000000)" id="radialGradient-16">
            <stop stop-color="#FFFFFF" stop-opacity="0.1" offset="0%"></stop>
            <stop stop-color="#FFFFFF" offset="0%"></stop>
            <stop stop-color="#FFFFFF" stop-opacity="0.480638587" offset="100%"></stop>
        </radialGradient>
    </defs>
    <g id="Page-1" stroke="none" stroke-width="1" fill="none" fill-rule="evenodd">
        <polygon id="Path" fill="url(#radialGradient-1)" points="439.730627 440 0.089791051 440 -5.68434189e-14 439.910209 219.910209 220 439.820418 439.910209 439.730627 440"></polygon>
        <g id="Path">
            <use fill="black" fill-opacity="1" filter="url(#filter-4)" xlink:href="#path-3"></use>
            <use fill="url(#radialGradient-2)" fill-rule="evenodd" xlink:href="#path-3"></use>
        </g>
        <g id="Path">
            <use fill="black" fill-opacity="1" filter="url(#filter-6)" xlink:href="#path-5"></use>
            <use fill="#8B463B" fill-rule="evenodd" xlink:href="#path-5"></use>
        </g>
        <g id="Path">
            <use fill="black" fill-opacity="1" filter="url(#filter-8)" xlink:href="#path-7"></use>
            <use fill="#9D4E44" fill-rule="evenodd" xlink:href="#path-7"></use>
        </g>
        <g id="Path">
            <use fill="black" fill-opacity="1" filter="url(#filter-10)" xlink:href="#path-9"></use>
            <use fill="#B35B50" fill-rule="evenodd" xlink:href="#path-9"></use>
            <use fill="black" fill-opacity="1" filter="url(#filter-11)" xlink:href="#path-9"></use>
        </g>
        <g id="Face" transform="translate(137.000000, 108.000000)">
            <g id="Skin">
                <use fill="black" fill-opacity="1" filter="url(#filter-14)" xlink:href="#path-13"></use>
                <use fill="url(#radialGradient-12)" fill-rule="evenodd" xlink:href="#path-13"></use>
                <use fill="black" fill-opacity="1" filter="url(#filter-15)" xlink:href="#path-13"></use>
            </g>
        </g>
        <path d="M220,305.962383 C182.698442,304.357929 150.848708,268.079645 149.05373,223.033639 L147.038424,164.520785 C147.037776,163.695008 147.03236,162.968971 147.018777,161.565504 C146.95883,155.371394 147.073032,153.004135 147.679928,150.344961 C149.087282,144.178499 153.778764,138.336371 165.539185,130.41713 C180.787185,121.955877 201.613584,118.137266 220,118.00364 C216,160.224244 214,191.889698 214,213 C214,233.658307 216,264.645768 220,305.962383 Z" id="Path" fill-opacity="0.2" fill="url(#radialGradient-16)" style="mix-blend-mode: overlay;"></path>
        <circle id="Oval" fill="#763723" cx="186" cy="184" r="10"></circle>
        <circle id="Oval" fill-opacity="0.261294158" fill="#000000" cx="186" cy="184" r="4"></circle>
        <circle id="Oval" fill="#763723" cx="254" cy="184" r="10"></circle>
        <circle id="Oval" fill-opacity="0.261294158" fill="#000000" cx="254" cy="184" r="4"></circle>
        <path d="M196,259.098527 C193,257.126678 192,255.905535 192,253.182979 C192,250.460423 194,248.253355 197,249.23928 C200,250.225205 203,256.140753 220,256.140753 C237,256.140753 240,250.225205 243,249.23928 C246,248.253355 248,250.460423 248,253.182979 C248,255.905535 247,257.126678 244,259.098527 C241.338121,260.738785 230.647489,264.997055 220,265 C209.314207,265.002956 198.671455,260.744685 196,259.098527 Z" id="Path" fill="#80412D"></path>
    </g>
</svg>
