<svg width="133" height="36" viewBox="0 0 133 36" fill="none" xmlns="http://www.w3.org/2000/svg">
<rect width="133" height="36" fill="white"/>
<rect width="114" height="36" rx="18" fill="black"/>
<path d="M29.6333 14.1111L33.4667 18L29.6333 21.8889" stroke="white" stroke-width="2" stroke-linecap="round" stroke-linejoin="round"/>
<path d="M21.8333 14.1111L18 18L21.8333 21.8889" stroke="white" stroke-width="2" stroke-linecap="round" stroke-linejoin="round"/>
<path d="M52.5643 16.2173H50.9706C50.9251 15.956 50.8413 15.7244 50.7191 15.5227C50.597 15.3182 50.445 15.1449 50.2632 15.0028C50.0813 14.8608 49.874 14.7543 49.641 14.6832C49.4109 14.6094 49.1623 14.5724 48.8953 14.5724C48.4208 14.5724 48.0004 14.6918 47.6339 14.9304C47.2674 15.1662 46.9805 15.5128 46.7731 15.9702C46.5657 16.4247 46.462 16.9801 46.462 17.6364C46.462 18.304 46.5657 18.8665 46.7731 19.3239C46.9833 19.7784 47.2703 20.1222 47.6339 20.3551C48.0004 20.5852 48.4194 20.7003 48.891 20.7003C49.1524 20.7003 49.3967 20.6662 49.624 20.598C49.8541 20.527 50.06 20.4233 50.2419 20.2869C50.4265 20.1506 50.5813 19.983 50.7063 19.7841C50.8342 19.5852 50.9223 19.358 50.9706 19.1023L52.5643 19.1108C52.5046 19.5256 52.3754 19.9148 52.1765 20.2784C51.9805 20.642 51.7234 20.9631 51.4052 21.2415C51.087 21.517 50.7149 21.733 50.2887 21.8892C49.8626 22.0426 49.3896 22.1193 48.8697 22.1193C48.1027 22.1193 47.418 21.9418 46.8157 21.5866C46.2135 21.2315 45.739 20.7188 45.3924 20.0483C45.0458 19.3778 44.8725 18.5739 44.8725 17.6364C44.8725 16.696 45.0473 15.892 45.3967 15.2244C45.7461 14.554 46.222 14.0412 46.8242 13.6861C47.4265 13.331 48.1083 13.1534 48.8697 13.1534C49.3555 13.1534 49.8072 13.2216 50.2248 13.358C50.6424 13.4943 51.0146 13.6946 51.3413 13.9588C51.668 14.2202 51.9365 14.5412 52.1467 14.9219C52.3598 15.2997 52.499 15.7315 52.5643 16.2173ZM56.799 22.1278C56.1598 22.1278 55.6059 21.9872 55.1371 21.706C54.6684 21.4247 54.3047 21.0312 54.0462 20.5256C53.7905 20.0199 53.6627 19.429 53.6627 18.7528C53.6627 18.0767 53.7905 17.4844 54.0462 16.9759C54.3047 16.4673 54.6684 16.0724 55.1371 15.7912C55.6059 15.5099 56.1598 15.3693 56.799 15.3693C57.4382 15.3693 57.9922 15.5099 58.461 15.7912C58.9297 16.0724 59.2919 16.4673 59.5476 16.9759C59.8061 17.4844 59.9354 18.0767 59.9354 18.7528C59.9354 19.429 59.8061 20.0199 59.5476 20.5256C59.2919 21.0312 58.9297 21.4247 58.461 21.706C57.9922 21.9872 57.4382 22.1278 56.799 22.1278ZM56.8076 20.892C57.1541 20.892 57.4439 20.7969 57.6769 20.6065C57.9098 20.4134 58.0831 20.1548 58.1968 19.831C58.3132 19.5071 58.3715 19.1463 58.3715 18.7486C58.3715 18.348 58.3132 17.9858 58.1968 17.6619C58.0831 17.3352 57.9098 17.0753 57.6769 16.8821C57.4439 16.6889 57.1541 16.5923 56.8076 16.5923C56.4524 16.5923 56.157 16.6889 55.9212 16.8821C55.6882 17.0753 55.5135 17.3352 55.397 17.6619C55.2834 17.9858 55.2266 18.348 55.2266 18.7486C55.2266 19.1463 55.2834 19.5071 55.397 19.831C55.5135 20.1548 55.6882 20.4134 55.9212 20.6065C56.157 20.7969 56.4524 20.892 56.8076 20.892ZM61.2447 22V15.4545H62.7191V16.5668H62.7958C62.9322 16.1918 63.1581 15.8991 63.4734 15.6889C63.7887 15.4759 64.1652 15.3693 64.6027 15.3693C65.0458 15.3693 65.4194 15.4773 65.7234 15.6932C66.0302 15.9062 66.2461 16.1974 66.3711 16.5668H66.4393C66.5842 16.2031 66.8285 15.9134 67.1723 15.6974C67.5188 15.4787 67.9294 15.3693 68.4038 15.3693C69.0061 15.3693 69.4975 15.5597 69.8782 15.9403C70.2589 16.321 70.4492 16.8764 70.4492 17.6065V22H68.9024V17.8452C68.9024 17.4389 68.7944 17.142 68.5785 16.9545C68.3626 16.7642 68.0984 16.669 67.7859 16.669C67.4137 16.669 67.1225 16.7855 66.9123 17.0185C66.7049 17.2486 66.6012 17.5483 66.6012 17.9176V22H65.0885V17.7812C65.0885 17.4432 64.9862 17.1733 64.7816 16.9716C64.5799 16.7699 64.3157 16.669 63.989 16.669C63.7674 16.669 63.5657 16.7259 63.3839 16.8395C63.2021 16.9503 63.0572 17.108 62.9492 17.3125C62.8413 17.5142 62.7873 17.75 62.7873 18.0199V22H61.2447ZM72.0142 24.4545V15.4545H73.5313V16.5369H73.6208C73.7003 16.3778 73.8125 16.2088 73.9574 16.0298C74.1023 15.848 74.2983 15.6932 74.5455 15.5653C74.7926 15.4347 75.108 15.3693 75.4915 15.3693C75.9972 15.3693 76.4532 15.4986 76.8594 15.7571C77.2685 16.0128 77.5924 16.392 77.831 16.8949C78.0725 17.3949 78.1932 18.0085 78.1932 18.7358C78.1932 19.4545 78.0753 20.0653 77.8395 20.5682C77.6037 21.071 77.2827 21.4545 76.8764 21.7188C76.4702 21.983 76.01 22.1151 75.4958 22.1151C75.1208 22.1151 74.8097 22.0526 74.5625 21.9276C74.3154 21.8026 74.1165 21.652 73.9659 21.4759C73.8182 21.2969 73.7032 21.1278 73.6208 20.9688H73.5568V24.4545H72.0142ZM73.527 18.7273C73.527 19.1506 73.5867 19.5213 73.706 19.8395C73.8282 20.1577 74.0029 20.4062 74.2301 20.5852C74.4603 20.7614 74.7387 20.8494 75.0654 20.8494C75.4063 20.8494 75.6918 20.7585 75.9219 20.5767C76.152 20.392 76.3253 20.1406 76.4418 19.8224C76.5611 19.5014 76.6208 19.1364 76.6208 18.7273C76.6208 18.321 76.5625 17.9602 76.4461 17.6449C76.3296 17.3295 76.1563 17.0824 75.9262 16.9034C75.6961 16.7244 75.4091 16.6349 75.0654 16.6349C74.7358 16.6349 74.456 16.7216 74.2259 16.8949C73.9958 17.0682 73.8211 17.3111 73.7017 17.6236C73.5853 17.9361 73.527 18.304 73.527 18.7273ZM81.3978 22.1321C80.983 22.1321 80.6094 22.0582 80.277 21.9105C79.9475 21.7599 79.6861 21.5384 79.4929 21.2457C79.3026 20.9531 79.2074 20.5923 79.2074 20.1634C79.2074 19.794 79.2756 19.4886 79.412 19.2472C79.5483 19.0057 79.7344 18.8125 79.9702 18.6676C80.206 18.5227 80.4716 18.4134 80.7671 18.3395C81.0654 18.2628 81.3736 18.2074 81.6918 18.1733C82.0753 18.1335 82.3864 18.098 82.625 18.0668C82.8637 18.0327 83.037 17.9815 83.1449 17.9134C83.2557 17.8423 83.3111 17.733 83.3111 17.5852V17.5597C83.3111 17.2386 83.2159 16.9901 83.0256 16.8139C82.8353 16.6378 82.5611 16.5497 82.2032 16.5497C81.8253 16.5497 81.5256 16.6321 81.304 16.7969C81.0853 16.9616 80.9375 17.1562 80.8608 17.3807L79.4205 17.1761C79.5341 16.7784 79.7216 16.446 79.983 16.179C80.2443 15.9091 80.5639 15.7074 80.9418 15.5739C81.3196 15.4375 81.7372 15.3693 82.1946 15.3693C82.51 15.3693 82.8239 15.4062 83.1364 15.4801C83.4489 15.554 83.7344 15.6761 83.9929 15.8466C84.2514 16.0142 84.4588 16.2429 84.6151 16.5327C84.7742 16.8224 84.8537 17.1847 84.8537 17.6193V22H83.3708V21.1009H83.3196C83.2259 21.2827 83.0938 21.4531 82.9233 21.6122C82.7557 21.7685 82.5441 21.8949 82.2884 21.9915C82.0355 22.0852 81.7387 22.1321 81.3978 22.1321ZM81.7983 20.9986C82.108 20.9986 82.3764 20.9375 82.6037 20.8153C82.831 20.6903 83.0057 20.5256 83.1279 20.321C83.2529 20.1165 83.3154 19.8935 83.3154 19.652V18.8807C83.2671 18.9205 83.1847 18.9574 83.0682 18.9915C82.9546 19.0256 82.8267 19.0554 82.6847 19.081C82.5426 19.1065 82.402 19.1293 82.2628 19.1491C82.1236 19.169 82.0029 19.1861 81.9006 19.2003C81.6705 19.2315 81.4645 19.2827 81.2827 19.3537C81.1009 19.4247 80.9574 19.5241 80.8523 19.652C80.7472 19.777 80.6946 19.9389 80.6946 20.1378C80.6946 20.4219 80.7983 20.6364 81.0057 20.7812C81.2131 20.9261 81.4773 20.9986 81.7983 20.9986ZM86.4049 22V15.4545H87.9006V16.5455H87.9688C88.0881 16.1676 88.2926 15.8764 88.5824 15.6719C88.875 15.4645 89.2088 15.3608 89.5838 15.3608C89.6691 15.3608 89.7642 15.3651 89.8693 15.3736C89.9773 15.3793 90.0668 15.3892 90.1378 15.4034V16.8224C90.0725 16.7997 89.9688 16.7798 89.8267 16.7628C89.6875 16.7429 89.5526 16.733 89.4219 16.733C89.1407 16.733 88.8878 16.794 88.6634 16.9162C88.4418 17.0355 88.2671 17.2017 88.1392 17.4148C88.0114 17.6278 87.9475 17.8736 87.9475 18.152V22H86.4049ZM93.7909 22.1278C93.1346 22.1278 92.5679 21.9915 92.0906 21.7188C91.6161 21.4432 91.2511 21.054 90.9954 20.5511C90.7397 20.0455 90.6119 19.4503 90.6119 18.7656C90.6119 18.0923 90.7397 17.5014 90.9954 16.9929C91.2539 16.4815 91.6147 16.0838 92.0778 15.7997C92.5409 15.5128 93.0849 15.3693 93.7099 15.3693C94.1133 15.3693 94.494 15.4347 94.8519 15.5653C95.2127 15.6932 95.5309 15.892 95.8065 16.1619C96.0849 16.4318 96.3037 16.7756 96.4627 17.1932C96.6218 17.608 96.7014 18.1023 96.7014 18.6761V19.1491H91.3363V18.1094H95.2227C95.2198 17.8139 95.1559 17.5511 95.0309 17.321C94.9059 17.0881 94.7312 16.9048 94.5068 16.7713C94.2852 16.6378 94.0267 16.571 93.7312 16.571C93.4159 16.571 93.1389 16.6477 92.9002 16.8011C92.6616 16.9517 92.4755 17.1506 92.342 17.3977C92.2113 17.642 92.1446 17.9105 92.1417 18.2031V19.1108C92.1417 19.4915 92.2113 19.8182 92.3505 20.0909C92.4897 20.3608 92.6843 20.5682 92.9343 20.7131C93.1843 20.8551 93.4769 20.9261 93.8122 20.9261C94.0366 20.9261 94.2397 20.8949 94.4215 20.8324C94.6034 20.767 94.761 20.6719 94.8946 20.5469C95.0281 20.4219 95.1289 20.267 95.1971 20.0824L96.6375 20.2443C96.5465 20.625 96.3733 20.9574 96.1176 21.2415C95.8647 21.5227 95.5409 21.7415 95.146 21.8977C94.7511 22.0511 94.2994 22.1278 93.7909 22.1278Z" fill="white"/>
</svg>
