<svg width="118" height="40" viewBox="0 0 118 40" fill="none" xmlns="http://www.w3.org/2000/svg">
<g clip-path="url(#clip0_7_2)">
<g filter="url(#filter0_i_7_2)">
<rect x="2" y="2" width="114" height="36" rx="18" fill="#0F0F0F"/>
</g>
<rect x="1" y="1" width="116" height="38" rx="19" stroke="white" stroke-opacity="0.2" stroke-width="2"/>
<path d="M31.6333 16.1111L35.4667 20L31.6333 23.8889" stroke="white" stroke-width="2" stroke-linecap="round" stroke-linejoin="round"/>
<path d="M23.8333 16.1111L20 20L23.8333 23.8889" stroke="white" stroke-width="2" stroke-linecap="round" stroke-linejoin="round"/>
<path d="M54.5643 18.2173H52.9706C52.9251 17.956 52.8413 17.7244 52.7191 17.5227C52.597 17.3182 52.445 17.1449 52.2632 17.0028C52.0813 16.8608 51.874 16.7543 51.641 16.6832C51.4109 16.6094 51.1623 16.5724 50.8953 16.5724C50.4208 16.5724 50.0004 16.6918 49.6339 16.9304C49.2674 17.1662 48.9805 17.5128 48.7731 17.9702C48.5657 18.4247 48.462 18.9801 48.462 19.6364C48.462 20.304 48.5657 20.8665 48.7731 21.3239C48.9833 21.7784 49.2703 22.1222 49.6339 22.3551C50.0004 22.5852 50.4194 22.7003 50.891 22.7003C51.1524 22.7003 51.3967 22.6662 51.624 22.598C51.8541 22.527 52.06 22.4233 52.2419 22.2869C52.4265 22.1506 52.5813 21.983 52.7063 21.7841C52.8342 21.5852 52.9223 21.358 52.9706 21.1023L54.5643 21.1108C54.5046 21.5256 54.3754 21.9148 54.1765 22.2784C53.9805 22.642 53.7234 22.9631 53.4052 23.2415C53.087 23.517 52.7149 23.733 52.2887 23.8892C51.8626 24.0426 51.3896 24.1193 50.8697 24.1193C50.1027 24.1193 49.418 23.9418 48.8157 23.5866C48.2135 23.2315 47.739 22.7188 47.3924 22.0483C47.0458 21.3778 46.8725 20.5739 46.8725 19.6364C46.8725 18.696 47.0473 17.892 47.3967 17.2244C47.7461 16.554 48.222 16.0412 48.8242 15.6861C49.4265 15.331 50.1083 15.1534 50.8697 15.1534C51.3555 15.1534 51.8072 15.2216 52.2248 15.358C52.6424 15.4943 53.0146 15.6946 53.3413 15.9588C53.668 16.2202 53.9365 16.5412 54.1467 16.9219C54.3598 17.2997 54.499 17.7315 54.5643 18.2173ZM58.799 24.1278C58.1598 24.1278 57.6059 23.9872 57.1371 23.706C56.6684 23.4247 56.3047 23.0312 56.0462 22.5256C55.7905 22.0199 55.6627 21.429 55.6627 20.7528C55.6627 20.0767 55.7905 19.4844 56.0462 18.9759C56.3047 18.4673 56.6684 18.0724 57.1371 17.7912C57.6059 17.5099 58.1598 17.3693 58.799 17.3693C59.4382 17.3693 59.9922 17.5099 60.461 17.7912C60.9297 18.0724 61.2919 18.4673 61.5476 18.9759C61.8061 19.4844 61.9354 20.0767 61.9354 20.7528C61.9354 21.429 61.8061 22.0199 61.5476 22.5256C61.2919 23.0312 60.9297 23.4247 60.461 23.706C59.9922 23.9872 59.4382 24.1278 58.799 24.1278ZM58.8076 22.892C59.1541 22.892 59.4439 22.7969 59.6769 22.6065C59.9098 22.4134 60.0831 22.1548 60.1968 21.831C60.3132 21.5071 60.3715 21.1463 60.3715 20.7486C60.3715 20.348 60.3132 19.9858 60.1968 19.6619C60.0831 19.3352 59.9098 19.0753 59.6769 18.8821C59.4439 18.6889 59.1541 18.5923 58.8076 18.5923C58.4524 18.5923 58.157 18.6889 57.9212 18.8821C57.6882 19.0753 57.5135 19.3352 57.397 19.6619C57.2834 19.9858 57.2266 20.348 57.2266 20.7486C57.2266 21.1463 57.2834 21.5071 57.397 21.831C57.5135 22.1548 57.6882 22.4134 57.9212 22.6065C58.157 22.7969 58.4524 22.892 58.8076 22.892ZM63.2447 24V17.4545H64.7191V18.5668H64.7958C64.9322 18.1918 65.1581 17.8991 65.4734 17.6889C65.7887 17.4759 66.1652 17.3693 66.6027 17.3693C67.0458 17.3693 67.4194 17.4773 67.7234 17.6932C68.0302 17.9062 68.2461 18.1974 68.3711 18.5668H68.4393C68.5842 18.2031 68.8285 17.9134 69.1723 17.6974C69.5188 17.4787 69.9294 17.3693 70.4038 17.3693C71.0061 17.3693 71.4975 17.5597 71.8782 17.9403C72.2589 18.321 72.4492 18.8764 72.4492 19.6065V24H70.9024V19.8452C70.9024 19.4389 70.7944 19.142 70.5785 18.9545C70.3626 18.7642 70.0984 18.669 69.7859 18.669C69.4137 18.669 69.1225 18.7855 68.9123 19.0185C68.7049 19.2486 68.6012 19.5483 68.6012 19.9176V24H67.0885V19.7812C67.0885 19.4432 66.9862 19.1733 66.7816 18.9716C66.5799 18.7699 66.3157 18.669 65.989 18.669C65.7674 18.669 65.5657 18.7259 65.3839 18.8395C65.2021 18.9503 65.0572 19.108 64.9492 19.3125C64.8413 19.5142 64.7873 19.75 64.7873 20.0199V24H63.2447ZM74.0142 26.4545V17.4545H75.5313V18.5369H75.6208C75.7003 18.3778 75.8125 18.2088 75.9574 18.0298C76.1023 17.848 76.2983 17.6932 76.5455 17.5653C76.7926 17.4347 77.108 17.3693 77.4915 17.3693C77.9972 17.3693 78.4532 17.4986 78.8594 17.7571C79.2685 18.0128 79.5924 18.392 79.831 18.8949C80.0725 19.3949 80.1932 20.0085 80.1932 20.7358C80.1932 21.4545 80.0753 22.0653 79.8395 22.5682C79.6037 23.071 79.2827 23.4545 78.8764 23.7188C78.4702 23.983 78.01 24.1151 77.4958 24.1151C77.1208 24.1151 76.8097 24.0526 76.5625 23.9276C76.3154 23.8026 76.1165 23.652 75.9659 23.4759C75.8182 23.2969 75.7032 23.1278 75.6208 22.9688H75.5568V26.4545H74.0142ZM75.527 20.7273C75.527 21.1506 75.5867 21.5213 75.706 21.8395C75.8282 22.1577 76.0029 22.4062 76.2301 22.5852C76.4603 22.7614 76.7387 22.8494 77.0654 22.8494C77.4063 22.8494 77.6918 22.7585 77.9219 22.5767C78.152 22.392 78.3253 22.1406 78.4418 21.8224C78.5611 21.5014 78.6208 21.1364 78.6208 20.7273C78.6208 20.321 78.5625 19.9602 78.4461 19.6449C78.3296 19.3295 78.1563 19.0824 77.9262 18.9034C77.6961 18.7244 77.4091 18.6349 77.0654 18.6349C76.7358 18.6349 76.456 18.7216 76.2259 18.8949C75.9958 19.0682 75.8211 19.3111 75.7017 19.6236C75.5853 19.9361 75.527 20.304 75.527 20.7273ZM83.3978 24.1321C82.983 24.1321 82.6094 24.0582 82.277 23.9105C81.9475 23.7599 81.6861 23.5384 81.4929 23.2457C81.3026 22.9531 81.2074 22.5923 81.2074 22.1634C81.2074 21.794 81.2756 21.4886 81.412 21.2472C81.5483 21.0057 81.7344 20.8125 81.9702 20.6676C82.206 20.5227 82.4716 20.4134 82.7671 20.3395C83.0654 20.2628 83.3736 20.2074 83.6918 20.1733C84.0753 20.1335 84.3864 20.098 84.625 20.0668C84.8637 20.0327 85.037 19.9815 85.1449 19.9134C85.2557 19.8423 85.3111 19.733 85.3111 19.5852V19.5597C85.3111 19.2386 85.2159 18.9901 85.0256 18.8139C84.8353 18.6378 84.5611 18.5497 84.2032 18.5497C83.8253 18.5497 83.5256 18.6321 83.304 18.7969C83.0853 18.9616 82.9375 19.1562 82.8608 19.3807L81.4205 19.1761C81.5341 18.7784 81.7216 18.446 81.983 18.179C82.2443 17.9091 82.5639 17.7074 82.9418 17.5739C83.3196 17.4375 83.7372 17.3693 84.1946 17.3693C84.51 17.3693 84.8239 17.4062 85.1364 17.4801C85.4489 17.554 85.7344 17.6761 85.9929 17.8466C86.2514 18.0142 86.4588 18.2429 86.6151 18.5327C86.7742 18.8224 86.8537 19.1847 86.8537 19.6193V24H85.3708V23.1009H85.3196C85.2259 23.2827 85.0938 23.4531 84.9233 23.6122C84.7557 23.7685 84.5441 23.8949 84.2884 23.9915C84.0355 24.0852 83.7387 24.1321 83.3978 24.1321ZM83.7983 22.9986C84.108 22.9986 84.3764 22.9375 84.6037 22.8153C84.831 22.6903 85.0057 22.5256 85.1279 22.321C85.2529 22.1165 85.3154 21.8935 85.3154 21.652V20.8807C85.2671 20.9205 85.1847 20.9574 85.0682 20.9915C84.9546 21.0256 84.8267 21.0554 84.6847 21.081C84.5426 21.1065 84.402 21.1293 84.2628 21.1491C84.1236 21.169 84.0029 21.1861 83.9006 21.2003C83.6705 21.2315 83.4645 21.2827 83.2827 21.3537C83.1009 21.4247 82.9574 21.5241 82.8523 21.652C82.7472 21.777 82.6946 21.9389 82.6946 22.1378C82.6946 22.4219 82.7983 22.6364 83.0057 22.7812C83.2131 22.9261 83.4773 22.9986 83.7983 22.9986ZM88.4049 24V17.4545H89.9006V18.5455H89.9688C90.0881 18.1676 90.2926 17.8764 90.5824 17.6719C90.875 17.4645 91.2088 17.3608 91.5838 17.3608C91.6691 17.3608 91.7642 17.3651 91.8693 17.3736C91.9773 17.3793 92.0668 17.3892 92.1378 17.4034V18.8224C92.0725 18.7997 91.9688 18.7798 91.8267 18.7628C91.6875 18.7429 91.5526 18.733 91.4219 18.733C91.1407 18.733 90.8878 18.794 90.6634 18.9162C90.4418 19.0355 90.2671 19.2017 90.1392 19.4148C90.0114 19.6278 89.9475 19.8736 89.9475 20.152V24H88.4049ZM95.7909 24.1278C95.1346 24.1278 94.5679 23.9915 94.0906 23.7188C93.6161 23.4432 93.2511 23.054 92.9954 22.5511C92.7397 22.0455 92.6119 21.4503 92.6119 20.7656C92.6119 20.0923 92.7397 19.5014 92.9954 18.9929C93.2539 18.4815 93.6147 18.0838 94.0778 17.7997C94.5409 17.5128 95.0849 17.3693 95.7099 17.3693C96.1133 17.3693 96.494 17.4347 96.8519 17.5653C97.2127 17.6932 97.5309 17.892 97.8065 18.1619C98.0849 18.4318 98.3037 18.7756 98.4627 19.1932C98.6218 19.608 98.7014 20.1023 98.7014 20.6761V21.1491H93.3363V20.1094H97.2227C97.2198 19.8139 97.1559 19.5511 97.0309 19.321C96.9059 19.0881 96.7312 18.9048 96.5068 18.7713C96.2852 18.6378 96.0267 18.571 95.7312 18.571C95.4159 18.571 95.1389 18.6477 94.9002 18.8011C94.6616 18.9517 94.4755 19.1506 94.342 19.3977C94.2113 19.642 94.1446 19.9105 94.1417 20.2031V21.1108C94.1417 21.4915 94.2113 21.8182 94.3505 22.0909C94.4897 22.3608 94.6843 22.5682 94.9343 22.7131C95.1843 22.8551 95.4769 22.9261 95.8122 22.9261C96.0366 22.9261 96.2397 22.8949 96.4215 22.8324C96.6034 22.767 96.761 22.6719 96.8946 22.5469C97.0281 22.4219 97.1289 22.267 97.1971 22.0824L98.6375 22.2443C98.5465 22.625 98.3733 22.9574 98.1176 23.2415C97.8647 23.5227 97.5409 23.7415 97.146 23.8977C96.7511 24.0511 96.2994 24.1278 95.7909 24.1278Z" fill="white"/>
</g>
<defs>
<filter id="filter0_i_7_2" x="0" y="0" width="118" height="41" filterUnits="userSpaceOnUse" color-interpolation-filters="sRGB">
<feFlood flood-opacity="0" result="BackgroundImageFix"/>
<feBlend mode="normal" in="SourceGraphic" in2="BackgroundImageFix" result="shape"/>
<feColorMatrix in="SourceAlpha" type="matrix" values="0 0 0 0 0 0 0 0 0 0 0 0 0 0 0 0 0 0 127 0" result="hardAlpha"/>
<feMorphology radius="1" operator="erode" in="SourceAlpha" result="effect1_innerShadow_7_2"/>
<feOffset dy="1"/>
<feGaussianBlur stdDeviation="2"/>
<feComposite in2="hardAlpha" operator="arithmetic" k2="-1" k3="1"/>
<feColorMatrix type="matrix" values="0 0 0 0 0 0 0 0 0 0 0 0 0 0 0 0 0 0 0.25 0"/>
<feBlend mode="normal" in2="shape" result="effect1_innerShadow_7_2"/>
</filter>
<clipPath id="clip0_7_2">
<rect width="118" height="40" fill="white"/>
</clipPath>
</defs>
</svg>
